<svg width="30" height="31" viewBox="0 0 30 31" fill="none" xmlns="http://www.w3.org/2000/svg">
<circle cx="14.9999" cy="15.0649" r="14.9997" fill="white"/>
<path d="M12.0024 11.4884C12.0024 13.0041 10.9323 14.2328 9.61201 14.2328C8.29201 14.2328 7.22192 13.0041 7.22192 11.4884C7.22192 9.97278 8.29201 8.74435 9.61201 8.74435C10.9323 8.74435 12.0024 9.97278 12.0024 11.4884Z" fill="#21214D"/>
<path d="M22.7787 11.4884C22.7787 13.0041 21.7086 14.2328 20.3886 14.2328C19.0686 14.2328 17.9985 13.0041 17.9985 11.4884C17.9985 9.97278 19.0686 8.74435 20.3886 8.74435C21.7086 8.74435 22.7787 9.97278 22.7787 11.4884Z" fill="#21214D"/>
<path d="M10.0195 10.6743C10.0195 11.1532 9.6311 11.5419 9.15189 11.5419C8.67267 11.5419 8.28424 11.1532 8.28424 10.6743C8.28424 10.1951 8.67267 9.80663 9.15189 9.80663C9.6311 9.80663 10.0195 10.1951 10.0195 10.6743Z" fill="white"/>
<path d="M20.7961 10.6743C20.7961 11.1532 20.4077 11.5419 19.9284 11.5419C19.4492 11.5419 19.0608 11.1532 19.0608 10.6743C19.0608 10.1951 19.4492 9.80663 19.9284 9.80663C20.4077 9.80663 20.7961 10.1951 20.7961 10.6743Z" fill="white"/>
<path d="M21.497 20.6103L21.4827 20.5962C21.0329 20.2067 20.2895 20.3163 19.7195 20.7131C18.9546 21.2512 18.1224 21.623 17.2655 21.839C16.5642 22.0516 15.7994 22.1684 14.999 22.1684C14.1953 22.1684 13.4304 22.0516 12.7258 21.8356C11.8722 21.6196 11.0437 21.2476 10.2825 20.7131C9.71225 20.3163 8.96877 20.2067 8.51903 20.5962L8.50129 20.6103C8.0552 20.9891 8.17547 21.8815 8.88373 22.4906C10.4409 23.827 12.3496 24.6157 14.3414 24.8296C14.5587 24.8424 14.7778 24.8512 15.0003 24.8512C15.2234 24.8512 15.443 24.8424 15.6609 24.8296C17.6523 24.6154 19.5609 23.827 21.1146 22.4906C21.8263 21.8815 21.9468 20.9891 21.497 20.6103Z" fill="#21214D"/>
</svg>
