<svg width="30" height="31" viewBox="0 0 30 31" fill="none" xmlns="http://www.w3.org/2000/svg">
<circle cx="14.9999" cy="15.0649" r="14.9997" fill="white"/>
<path d="M10.8187 24.7664L10.8331 24.774C11.2867 24.9725 11.9355 24.7685 12.391 24.3921C13.0012 23.8824 13.6938 23.4785 14.4294 23.1806C15.0266 22.9116 15.6933 22.6993 16.4076 22.5634C17.1247 22.4267 17.8231 22.3792 18.4807 22.4118C19.2712 22.4192 20.0606 22.5406 20.8119 22.7884C21.3738 22.9717 22.052 22.9226 22.4011 22.5715L22.4149 22.5585C22.7621 22.2154 22.5349 21.6063 21.8212 21.2968C20.252 20.6186 18.4429 20.3867 16.6369 20.5742C16.4413 20.6019 16.2446 20.6329 16.046 20.6707C15.847 20.7086 15.6521 20.7521 15.4593 20.7983C13.7113 21.2877 12.1142 22.1682 10.9074 23.3749C10.3541 23.9257 10.3664 24.5755 10.8187 24.7664Z" fill="#21214D"/>
<path d="M12.0023 12.2557C12.0023 13.7714 10.9322 15 9.61224 15C8.29198 15 7.22189 13.7714 7.22189 12.2557C7.22189 10.74 8.29198 9.51135 9.61224 9.51135C10.9322 9.51135 12.0023 10.74 12.0023 12.2557Z" fill="#21214D"/>
<path d="M22.7789 12.2557C22.7789 13.7714 21.7088 15 20.3885 15C19.0685 15 17.9984 13.7714 17.9984 12.2557C17.9984 10.74 19.0685 9.51135 20.3885 9.51135C21.7088 9.51135 22.7789 10.74 22.7789 12.2557Z" fill="#21214D"/>
<path d="M10.0195 11.4412C10.0195 11.9204 9.63105 12.3088 9.15183 12.3088C8.67262 12.3088 8.28418 11.9204 8.28418 11.4412C8.28418 10.9622 8.67262 10.5735 9.15183 10.5735C9.63105 10.5735 10.0195 10.9622 10.0195 11.4412Z" fill="white"/>
<path d="M20.796 11.4412C20.796 11.9204 20.4076 12.3088 19.9284 12.3088C19.4492 12.3088 19.0607 11.9204 19.0607 11.4412C19.0607 10.9622 19.4492 10.5735 19.9284 10.5735C20.4076 10.5735 20.796 10.9622 20.796 11.4412Z" fill="white"/>
</svg>
