<svg width="30" height="30" viewBox="0 0 30 30" fill="none" xmlns="http://www.w3.org/2000/svg">
<circle cx="15.0003" cy="15" r="15" fill="white"/>
<path d="M12.0025 11.6192C12.0025 13.1349 10.9323 14.3636 9.61232 14.3636C8.29229 14.3636 7.22192 13.1349 7.22192 11.6192C7.22192 10.1036 8.29229 8.87484 9.61232 8.87484C10.9323 8.87484 12.0025 10.1036 12.0025 11.6192Z" fill="#21214D"/>
<path d="M22.7792 11.6192C22.7792 13.1349 21.7091 14.3636 20.3891 14.3636C19.0688 14.3636 17.9987 13.1349 17.9987 11.6192C17.9987 10.1036 19.0688 8.87484 20.3891 8.87484C21.7091 8.87484 22.7792 10.1036 22.7792 11.6192Z" fill="#21214D"/>
<path d="M10.0195 10.8048C10.0195 11.284 9.63109 11.6725 9.15212 11.6725C8.67289 11.6725 8.28445 11.284 8.28445 10.8048C8.28445 10.3255 8.67289 9.93711 9.15212 9.93711C9.63109 9.93711 10.0195 10.3255 10.0195 10.8048Z" fill="white"/>
<path d="M20.7962 10.8048C20.7962 11.284 20.4078 11.6725 19.9285 11.6725C19.4493 11.6725 19.0609 11.284 19.0609 10.8048C19.0609 10.3255 19.4493 9.93711 19.9285 9.93711C20.4078 9.93711 20.7962 10.3255 20.7962 10.8048Z" fill="white"/>
<path d="M15.0003 25.5103C17.8056 25.5103 19.7512 24.6412 21.1595 23.5533C22.5709 22.4628 23.4454 21.1512 24.1106 20.2515C24.6871 19.4735 24.703 18.7489 24.5179 18.2027H24.5169V18.2007C24.4923 18.1232 24.4611 18.0482 24.4261 17.9751L24.4251 17.9742C24.2985 17.7033 24.1247 17.4879 23.9612 17.3482C23.8796 17.2784 23.8033 17.2288 23.7386 17.2007C23.6751 17.1733 23.634 17.1712 23.6136 17.1753C22.1105 17.8675 20.3428 18.1644 18.762 18.2886C17.177 18.4132 15.7696 18.3648 15.0003 18.3648C14.2308 18.3648 12.8241 18.4131 11.2395 18.2886C9.65851 18.1643 7.89015 17.8676 6.38699 17.1753C6.36647 17.1713 6.3259 17.1735 6.26297 17.2007C6.19823 17.2288 6.12111 17.2782 6.03934 17.3482C5.87602 17.4879 5.70297 17.7035 5.57645 17.9742L5.57547 17.9751C5.54049 18.0481 5.50955 18.1231 5.48465 18.2007L5.48367 18.2027C5.29851 18.7488 5.31382 19.4735 5.88992 20.2515C6.55527 21.1512 7.43054 22.4628 8.84207 23.5533C10.2503 24.6411 12.1953 25.5102 15.0003 25.5103Z" fill="#21214D" stroke="#21214D" stroke-width="0.195656"/>
<path d="M7.92622 20.2176C9.80914 21.4232 12.2866 22.1545 15.0002 22.1545C16.8744 22.1545 18.636 21.8056 20.1662 21.1926C21.1126 20.8137 21.9706 20.3337 22.7121 19.7729C22.9519 19.5916 23.1791 19.4019 23.3933 19.2045C23.6075 19.0072 23.8086 18.8019 23.9959 18.5896C24.0343 18.5459 24.0722 18.502 24.1095 18.4577C24.1174 18.4485 24.1253 18.4392 24.1332 18.4299L24.1444 18.4159C24.1818 18.371 24.2185 18.3257 24.2546 18.2802L24.2657 18.2664L24.2717 18.2585C24.3559 18.1514 24.4368 18.0427 24.514 17.9324C24.3638 17.6114 24.1498 17.3628 23.9558 17.2179C23.8969 17.1736 23.8398 17.1389 23.7871 17.1147C23.787 17.1147 23.787 17.1148 23.7869 17.1149C23.767 17.1062 23.7481 17.0989 23.7299 17.0931C23.7146 17.0881 23.6998 17.0842 23.6856 17.0813C23.6728 17.0786 23.6604 17.0767 23.6483 17.0755L23.648 17.076L23.6483 17.0751C23.6235 17.0751 23.6028 17.0752 23.582 17.0815L23.5819 17.0817C20.8907 18.3262 17.3185 18.289 15.5145 18.2703C15.3218 18.2683 15.1493 18.2665 15.0002 18.2665C14.8509 18.2665 14.678 18.2683 14.4852 18.2703C13.6682 18.2788 12.4899 18.291 11.1949 18.1866C9.62849 18.06 7.89156 17.7626 6.41786 17.0815C6.40136 17.0769 6.38312 17.0749 6.36339 17.0755L6.35206 17.0755L6.35186 17.0751C6.31043 17.0793 6.26299 17.0915 6.21327 17.1145L6.21388 17.1157L6.2137 17.1158L6.21314 17.1147C5.98529 17.2182 5.68283 17.5144 5.48605 17.9328C5.52539 17.9888 5.56666 18.0446 5.60808 18.1006L5.60831 18.1002L5.60815 18.1008C5.64957 18.1567 5.69102 18.2106 5.73451 18.2665C5.74742 18.2825 5.76037 18.2986 5.77335 18.3149C5.80409 18.3533 5.83516 18.3922 5.86718 18.4301C5.88959 18.4565 5.91206 18.4824 5.93443 18.5084L5.93458 18.5086C5.95764 18.5353 5.9807 18.5621 6.00379 18.5894C6.1923 18.8028 6.3935 19.008 6.60687 19.2048C6.81125 19.3915 7.02503 19.5725 7.25159 19.7445C7.264 19.754 7.27645 19.7635 7.28893 19.7729C7.35623 19.8238 7.42449 19.874 7.49369 19.9236C7.63404 20.0243 7.7778 20.1219 7.92622 20.2176Z" fill="white"/>
</svg>
